<mxfile host="app.diagrams.net" modified="2023-08-03T10:15:29.772Z" agent="Mozilla/5.0 (Macintosh; Intel Mac OS X 10_15_7) AppleWebKit/537.36 (KHTML, like Gecko) Chrome/106.0.0.0 Safari/537.36" version="21.6.1" etag="GQqxDd2MIu6fqdj5E_dL" type="github">
  <diagram name="Page-1" id="O2__na9JMParAHUJP4X6">
    <mxGraphModel>
      <root>
        <mxCell id="0" />
        <mxCell id="1" parent="0" />
      </root>
    </mxGraphModel>
  </diagram>
</mxfile>
